<?xml version="1.0" standalone="no"?>
<!DOCTYPE svg PUBLIC "-//W3C//DTD SVG 20010904//EN"
 "http://www.w3.org/TR/2001/REC-SVG-20010904/DTD/svg10.dtd">
<svg version="1.0" xmlns="http://www.w3.org/2000/svg"
 width="260.000000pt" height="260.000000pt" viewBox="0 0 260.000000 260.000000"
 preserveAspectRatio="xMidYMid meet">
<metadata>
Created by potrace 1.14, written by Peter Selinger 2001-2017
</metadata>
<g transform="translate(0.000000,260.000000) scale(0.100000,-0.100000)"
fill="#000000" stroke="none">
<path d="M820 2536 c-110 -23 -232 -114 -271 -200 -11 -25 -24 -46 -29 -46
-15 0 -56 -43 -75 -79 -13 -26 -16 -47 -11 -86 3 -30 1 -66 -5 -84 -9 -26 -8
-41 6 -76 17 -47 86 -115 115 -115 31 0 40 -20 24 -51 -21 -42 1 -90 53 -115
36 -17 40 -23 50 -77 6 -31 25 -87 42 -124 21 -43 28 -70 22 -76 -11 -11 2
-44 24 -62 19 -16 31 -65 31 -124 -1 -53 -2 -55 -35 -63 -68 -18 -125 19 -123
78 2 38 33 98 60 113 14 8 14 11 2 27 -8 9 -30 23 -47 31 -45 18 -103 -5 -125
-50 -12 -24 -26 -35 -59 -45 -79 -24 -135 -85 -99 -107 7 -4 6 -13 -1 -26 -5
-11 -7 -30 -3 -42 4 -12 7 -32 5 -44 -1 -11 7 -30 19 -41 26 -24 143 -57 167
-47 10 4 55 9 101 11 45 1 91 6 102 9 11 4 20 2 20 -3 0 -8 -31 -98 -82 -234
-5 -16 -16 -28 -24 -28 -32 0 -96 -43 -125 -83 -29 -39 -31 -47 -26 -108 3
-44 13 -83 31 -118 14 -29 26 -55 26 -57 0 -2 -16 3 -37 11 -51 22 -112 25
-153 9 -19 -8 -50 -16 -68 -18 -39 -4 -72 -31 -72 -59 0 -36 40 -104 83 -143
64 -57 176 -104 292 -124 118 -20 283 -19 352 3 31 10 111 18 228 22 99 3 183
9 188 14 4 4 -72 7 -169 7 l-177 -1 -4 28 -4 27 88 1 c48 1 104 2 123 4 19 2
53 3 74 4 22 1 36 4 32 8 -4 4 -75 8 -158 8 l-151 0 -14 41 c-7 22 -32 60 -55
84 -38 40 -47 44 -94 45 -43 2 -62 9 -103 39 -57 42 -90 84 -97 121 -5 31 21
35 31 5 8 -26 75 -80 98 -80 11 0 31 -8 45 -18 53 -37 94 -46 191 -45 70 1
100 -2 111 -12 9 -8 38 -24 65 -37 59 -26 184 -31 225 -8 14 7 48 15 76 16 47
3 53 1 58 -19 3 -12 19 -37 36 -54 39 -39 179 -112 223 -115 30 -2 120 33 131
51 13 20 15 69 4 96 -19 50 -94 149 -145 193 l-48 41 50 2 c28 0 80 1 117 2
113 2 64 12 -65 13 l-122 1 -70 41 c-76 46 -166 76 -195 67 -15 -5 -11 10 23
77 38 75 44 83 67 79 14 -2 35 -10 47 -18 17 -12 26 -12 45 -2 12 7 40 13 62
14 22 2 44 9 50 16 7 8 20 19 31 25 39 22 58 72 59 152 l1 75 140 4 c148 4
194 12 79 14 -38 0 -105 2 -149 3 l-79 2 -29 57 c-31 60 -99 137 -151 168
l-31 19 83 -3 c45 -1 82 1 82 6 0 4 -19 8 -42 8 -24 1 -59 3 -78 4 -19 2 -50
3 -69 4 -48 1 -29 15 26 18 67 4 66 13 0 13 -51 0 -57 2 -61 23 -32 162 -74
281 -137 385 -32 52 -37 67 -29 88 6 14 10 31 10 37 -1 20 -27 48 -47 51 -36
6 -17 31 52 71 64 37 76 40 150 42 158 3 225 8 225 16 0 4 -29 7 -64 5 -36 -1
-68 0 -71 4 -15 15 15 43 47 44 87 3 254 17 258 21 3 3 -62 3 -143 1 l-149 -4
-30 47 c-34 50 -71 78 -112 81 -18 2 -29 10 -32 24 -3 12 -19 34 -35 50 -16
15 -29 31 -29 34 0 4 30 8 68 10 121 4 141 5 146 11 3 2 -83 5 -190 5 l-195 1
-25 26 c-25 27 -63 38 -129 35 -22 -1 -60 7 -84 16 -56 22 -169 27 -241 12z
m819 -1377 c15 -44 5 -78 -21 -71 -14 3 -18 10 -14 26 3 11 6 33 6 49 0 36 15
34 29 -4z m-198 -571 c-12 -12 -21 -27 -22 -32 -5 -99 -10 -106 -71 -101 -51
4 -57 12 -27 32 29 21 95 89 117 122 9 13 18 19 20 13 2 -6 -6 -21 -17 -34z"/>
<path d="M2045 199 c-28 -6 -29 -7 -5 -10 61 -7 258 -3 250 5 -10 10 -201 14
-245 5z"/>
<path d="M1416 108 c3 -4 11 -5 19 -1 21 7 19 12 -4 10 -11 0 -18 -5 -15 -9z"/>
</g>
</svg>
